<?xml version="1.0" encoding="UTF-8"?>
<svg id="b" data-name="图层 2" xmlns="http://www.w3.org/2000/svg" viewBox="0 0 17.96 13.97">
  <defs>
    <style>
      .d {
        fill: #d64242;
      }
    </style>
  </defs>
  <g id="c" data-name="图层 1">
    <path class="d" d="M11.98,13.97h1.5c.36,0,.68-.19,.86-.5l3.49-5.99c.18-.31,.18-.69,0-1s-.51-.5-.86-.5H4.49c-.36,0-.68,.19-.86,.5l-2.13,3.66V2c0-.27,.22-.5,.5-.5h3.66c.13,0,.26,.05,.35,.15l.83,.83c.65,.65,1.54,1.02,2.47,1.02h3.66c.27,0,.5,.22,.5,.5v1h1.5v-1c0-1.1-.9-2-2-2h-3.66c-.53,0-1.04-.21-1.41-.58l-.83-.83c-.37-.37-.88-.58-1.41-.58H2C.9,0,0,.9,0,2V11.98c0,1.1,.9,2,2,2H11.98Z"/>
  </g>
</svg>