<?xml version="1.0" encoding="UTF-8"?>
<svg id="b" data-name="图层 2" xmlns="http://www.w3.org/2000/svg" viewBox="0 0 16.6 16.6">
  <defs>
    <style>
      .d {
        fill: #d64242;
      }
    </style>
  </defs>
  <g id="c" data-name="图层 1">
    <path class="d" d="M15.04,8.3c0-3.72-3.02-6.74-6.74-6.74S1.56,4.57,1.56,8.3s3.02,6.74,6.74,6.74,6.74-3.02,6.74-6.74ZM0,8.3C0,3.72,3.72,0,8.3,0s8.3,3.72,8.3,8.3-3.72,8.3-8.3,8.3S0,12.88,0,8.3Zm6.1-3.53c.25-.14,.54-.13,.79,.02l4.67,2.85c.23,.14,.37,.39,.37,.66s-.14,.52-.37,.66l-4.67,2.85c-.24,.15-.54,.15-.79,.02s-.4-.4-.4-.68V5.45c0-.28,.15-.54,.4-.68h0Z"/>
  </g>
</svg>