<?xml version="1.0" encoding="UTF-8"?>
<svg id="b" data-name="图层 2" xmlns="http://www.w3.org/2000/svg" viewBox="0 0 19.7 20.3">
  <defs>
    <style>
      .d {
        fill: #faebeb;
      }
    </style>
  </defs>
  <g id="c" data-name="图层 1">
    <path class="d" d="M9.85,20.3c-.53,0-.97-.4-.97-.88V6.4H3.31l2.15,1.97c.18,.17,.28,.39,.28,.63s-.1,.46-.28,.63c-.18,.17-.43,.26-.69,.26s-.5-.09-.69-.26L.28,6.15c-.38-.35-.38-.91,0-1.25l.21-.19h0S4.09,1.41,4.09,1.41c.18-.17,.43-.26,.69-.26s.5,.09,.69,.26c.38,.35,.38,.91,0,1.25l-2.15,1.97h5.57V.88c0-.49,.43-.88,.97-.88s.97,.4,.97,.88V13.9h5.57l-2.16-1.96c-.38-.35-.38-.91,0-1.25,.18-.17,.43-.26,.69-.26s.5,.09,.69,.26l3.81,3.47c.38,.35,.38,.91,0,1.25l-3.81,3.47c-.18,.17-.43,.26-.69,.26s-.5-.09-.69-.26c-.18-.17-.28-.39-.28-.63s.1-.46,.28-.63l2.15-1.96h-5.57v3.75c0,.49-.44,.88-.97,.88ZM2.24,15.67c-.53,0-.97-.4-.97-.88s.43-.88,.97-.88H7.01v1.77H2.24ZM12.69,6.4v-1.77h4.77c.53,0,.97,.4,.97,.88s-.43,.88-.97,.88h-4.77Z"/>
  </g>
</svg>