<?xml version="1.0" encoding="UTF-8"?>
<svg id="b" data-name="图层 2" xmlns="http://www.w3.org/2000/svg" viewBox="0 0 23.4 23.4">
  <defs>
    <style>
      .d {
        fill: #e3c3c3;
      }
    </style>
  </defs>
  <g id="c" data-name="图层 1">
    <path class="d" d="M11.7,23.4C5.25,23.4,0,18.15,0,11.7S5.25,0,11.7,0s11.7,5.25,11.7,11.7-5.25,11.7-11.7,11.7ZM11.7,1.65C6.16,1.65,1.65,6.16,1.65,11.7s4.51,10.05,10.05,10.05,10.05-4.51,10.05-10.05S17.24,1.65,11.7,1.65Zm0,15.75c-.66,0-1.2-.54-1.2-1.2s.54-1.2,1.2-1.2,1.2,.54,1.2,1.2-.54,1.2-1.2,1.2Zm0-4.5c-.46,0-.83-.37-.83-.83v-.63c0-.29,.16-.57,.42-.71l2.08-1.19c.31-.18,.51-.52,.51-.88,0-.56-.45-1.01-1.01-1.01h-2.73c-.29,0-.54,.18-.64,.45-.13,.38-.45,.6-.8,.6-.09,0-.19-.02-.27-.05-.21-.07-.37-.22-.47-.42-.1-.2-.11-.42-.03-.63l.07-.2c.36-.85,1.2-1.41,2.14-1.41h2.73c1.47,0,2.66,1.19,2.66,2.66,0,.95-.51,1.83-1.34,2.31l-1.66,.95v.17c0,.45-.38,.81-.83,.81Z"/>
  </g>
</svg>