<?xml version="1.0" encoding="UTF-8"?>
<svg id="b" data-name="图层 2" xmlns="http://www.w3.org/2000/svg" viewBox="0 0 24.42 21.7">
  <defs>
    <style>
      .d {
        fill: #faebeb;
      }
    </style>
  </defs>
  <g id="c" data-name="图层 1">
    <path class="d" d="M15.41,21.7c-.74,0-1.35-.7-1.35-1.57v-4.28c0-.87,.6-1.57,1.35-1.57h2.49v-2.57H6.53v2.57h2.49c.74,0,1.35,.7,1.35,1.57v4.28c0,.87-.6,1.57-1.35,1.57H2.62c-.74,0-1.35-.7-1.35-1.57v-4.28c0-.87,.6-1.57,1.35-1.57h2.49v-2.57H.71c-.39,0-.71-.38-.71-.86s.32-.86,.71-.86H11.5v-2.57h-2.49c-.74,0-1.35-.7-1.35-1.57V1.57c0-.87,.6-1.57,1.35-1.57h6.39c.74,0,1.35,.7,1.35,1.57V5.85c0,.87-.6,1.57-1.35,1.57h-2.49v2.57h10.8c.39,0,.71,.38,.71,.86s-.32,.86-.71,.86h-4.41v2.57h2.49c.74,0,1.35,.7,1.35,1.57v4.28c0,.87-.6,1.57-1.35,1.57h-6.39Zm.07-1.71h6.26v-4h-6.26v4Zm-12.78,0h6.26v-4H2.69v4ZM9.08,5.71h6.26V1.71h-6.26v4Z"/>
  </g>
</svg>