<?xml version="1.0" encoding="UTF-8"?>
<svg id="b" data-name="图层 2" xmlns="http://www.w3.org/2000/svg" viewBox="0 0 19.77 19.77">
  <defs>
    <style>
      .d {
        fill: #faebeb;
      }
    </style>
  </defs>
  <g id="c" data-name="图层 1">
    <path class="d" d="M4.75,19.77c-.24,0-.47-.09-.64-.27L.27,15.65c-.17-.17-.27-.4-.27-.64s.09-.47,.27-.64l3.85-3.85c.17-.17,.4-.27,.64-.27,.12,0,.24,.02,.35,.07,.34,.14,.56,.47,.56,.84v2.94h13.32c.44,.06,.79,.44,.79,.9,0,.5-.41,.9-.9,.9H5.66v2.94c0,.37-.22,.7-.56,.84-.11,.05-.23,.07-.34,.07ZM15.02,9.5c-.12,0-.24-.02-.35-.07-.34-.14-.56-.47-.56-.84v-2.94H.91C.41,5.66,0,5.25,0,4.75s.41-.9,.9-.9H14.11V.91c0-.37,.22-.7,.56-.84,.11-.05,.23-.07,.35-.07,.24,0,.47,.09,.64,.27l3.85,3.85c.17,.17,.27,.4,.27,.64s-.09,.47-.27,.64l-3.85,3.85c-.17,.17-.4,.27-.64,.27Z"/>
  </g>
</svg>