<?xml version="1.0" encoding="UTF-8"?>
<svg id="b" data-name="图层 2" xmlns="http://www.w3.org/2000/svg" viewBox="0 0 7.94 7.94">
  <defs>
    <style>
      .d {
        fill: #b54240;
      }
    </style>
  </defs>
  <g id="c" data-name="图层 1">
    <path class="d" d="M7.2,3.97c0,1.78-1.44,3.23-3.23,3.23S.74,5.75,.74,3.97,2.19,.74,3.97,.74s3.23,1.44,3.23,3.23ZM0,3.97c0,2.19,1.78,3.97,3.97,3.97s3.97-1.78,3.97-3.97S6.16,0,3.97,0,0,1.78,0,3.97ZM3.6,1.86V3.97c0,.12,.06,.24,.17,.31l1.49,.99c.17,.11,.4,.07,.52-.1s.07-.4-.1-.52l-1.32-.88V1.86c0-.21-.17-.37-.37-.37s-.37,.17-.37,.37Z"/>
  </g>
</svg>